<?xml version="1.0" encoding="UTF-8"?><svg xmlns="http://www.w3.org/2000/svg" xmlns:xlink="http://www.w3.org/1999/xlink" fill-opacity="1" color-rendering="auto" color-interpolation="auto" text-rendering="auto" stroke="black" stroke-linecap="square" width="484" stroke-miterlimit="10" shape-rendering="auto" stroke-opacity="1" fill="black" stroke-dasharray="none" font-weight="normal" stroke-width="1" height="363" font-family="'Dialog'" font-style="normal" stroke-linejoin="miter" font-size="12px" stroke-dashoffset="0" image-rendering="auto">
  <!--Generated by ySVG 2.6-->
  <defs id="genericDefs"/>
  <g>
    <defs id="defs1">
      <clipPath clipPathUnits="userSpaceOnUse" id="clipPath1">
        <path d="M0 0 L484 0 L484 363 L0 363 L0 0 Z"/>
      </clipPath>
      <clipPath clipPathUnits="userSpaceOnUse" id="clipPath2">
        <path d="M94 63 L578 63 L578 426 L94 426 L94 63 Z"/>
      </clipPath>
    </defs>
    <g fill="gray" text-rendering="geometricPrecision" shape-rendering="geometricPrecision" transform="matrix(1,0,0,1,-94,-63)" stroke="gray">
      <path d="M198 78 L198 376 L563 376 L563 78 ZM199 100 L199 375 L562 375 L562 100 Z" fill-rule="evenodd" clip-path="url(#clipPath2)" stroke="none"/>
    </g>
    <g stroke-linecap="butt" transform="matrix(1,0,0,1,-94,-63)" fill="white" text-rendering="geometricPrecision" font-family="sans-serif" shape-rendering="geometricPrecision" stroke="white" stroke-miterlimit="1.45">
      <text x="200" xml:space="preserve" y="91.6016" clip-path="url(#clipPath2)" stroke="none">bhenk\doc2rst</text>
    </g>
    <g fill="teal" text-rendering="geometricPrecision" shape-rendering="geometricPrecision" transform="matrix(1,0,0,1,-94,-63)" stroke="teal">
      <path d="M344 219 L344 249 L427 249 L427 219 ZM345 241 L345 248 L426 248 L426 241 Z" fill-rule="evenodd" clip-path="url(#clipPath2)" stroke="none"/>
    </g>
    <g stroke-linecap="butt" transform="matrix(1,0,0,1,-94,-63)" fill="white" text-rendering="geometricPrecision" font-family="sans-serif" shape-rendering="geometricPrecision" stroke="white" stroke-miterlimit="1.45">
      <text x="346" xml:space="preserve" y="232.6016" clip-path="url(#clipPath2)" stroke="none">work</text>
    </g>
    <g fill="teal" text-rendering="geometricPrecision" shape-rendering="geometricPrecision" transform="matrix(1,0,0,1,-94,-63)" stroke="teal">
      <path d="M231 200 L231 230 L314 230 L314 200 ZM232 222 L232 229 L313 229 L313 222 Z" fill-rule="evenodd" clip-path="url(#clipPath2)" stroke="none"/>
    </g>
    <g stroke-linecap="butt" transform="matrix(1,0,0,1,-94,-63)" fill="white" text-rendering="geometricPrecision" font-family="sans-serif" shape-rendering="geometricPrecision" stroke="white" stroke-miterlimit="1.45">
      <text x="233" xml:space="preserve" y="213.6016" clip-path="url(#clipPath2)" stroke="none">tag</text>
    </g>
    <g fill="teal" text-rendering="geometricPrecision" shape-rendering="geometricPrecision" transform="matrix(1,0,0,1,-94,-63)" stroke="teal">
      <path d="M457 260 L457 290 L540 290 L540 260 ZM458 282 L458 289 L539 289 L539 282 Z" fill-rule="evenodd" clip-path="url(#clipPath2)" stroke="none"/>
    </g>
    <g stroke-linecap="butt" transform="matrix(1,0,0,1,-94,-63)" fill="white" text-rendering="geometricPrecision" font-family="sans-serif" shape-rendering="geometricPrecision" stroke="white" stroke-miterlimit="1.45">
      <text x="459" xml:space="preserve" y="273.6016" clip-path="url(#clipPath2)" stroke="none">rst</text>
    </g>
    <g fill="teal" text-rendering="geometricPrecision" shape-rendering="geometricPrecision" transform="matrix(1,0,0,1,-94,-63)" stroke="teal">
      <path d="M344 260 L344 290 L427 290 L427 260 ZM345 282 L345 289 L426 289 L426 282 Z" fill-rule="evenodd" clip-path="url(#clipPath2)" stroke="none"/>
    </g>
    <g stroke-linecap="butt" transform="matrix(1,0,0,1,-94,-63)" fill="white" text-rendering="geometricPrecision" font-family="sans-serif" shape-rendering="geometricPrecision" stroke="white" stroke-miterlimit="1.45">
      <text x="346" xml:space="preserve" y="273.6016" clip-path="url(#clipPath2)" stroke="none">format</text>
    </g>
    <g fill="teal" text-rendering="geometricPrecision" shape-rendering="geometricPrecision" transform="matrix(1,0,0,1,-94,-63)" stroke="teal">
      <path d="M231 260 L231 290 L314 290 L314 260 ZM232 282 L232 289 L313 289 L313 282 Z" fill-rule="evenodd" clip-path="url(#clipPath2)" stroke="none"/>
    </g>
    <g stroke-linecap="butt" transform="matrix(1,0,0,1,-94,-63)" fill="white" text-rendering="geometricPrecision" font-family="sans-serif" shape-rendering="geometricPrecision" stroke="white" stroke-miterlimit="1.45">
      <text x="233" xml:space="preserve" y="273.6016" clip-path="url(#clipPath2)" stroke="none">d2r</text>
    </g>
    <g fill="teal" text-rendering="geometricPrecision" shape-rendering="geometricPrecision" transform="matrix(1,0,0,1,-94,-63)" stroke="teal">
      <path d="M231 306 L231 336 L314 336 L314 306 ZM232 328 L232 335 L313 335 L313 328 Z" fill-rule="evenodd" clip-path="url(#clipPath2)" stroke="none"/>
    </g>
    <g stroke-linecap="butt" transform="matrix(1,0,0,1,-94,-63)" fill="white" text-rendering="geometricPrecision" font-family="sans-serif" shape-rendering="geometricPrecision" stroke="white" stroke-miterlimit="1.45">
      <text x="233" xml:space="preserve" y="319.6016" clip-path="url(#clipPath2)" stroke="none">log</text>
    </g>
    <g fill="teal" text-rendering="geometricPrecision" shape-rendering="geometricPrecision" transform="matrix(1,0,0,1,-94,-63)" stroke="teal">
      <path d="M344 325 L344 355 L427 355 L427 325 ZM345 347 L345 354 L426 354 L426 347 Z" fill-rule="evenodd" clip-path="url(#clipPath2)" stroke="none"/>
    </g>
    <g stroke-linecap="butt" transform="matrix(1,0,0,1,-94,-63)" fill="white" text-rendering="geometricPrecision" font-family="sans-serif" shape-rendering="geometricPrecision" stroke="white" stroke-miterlimit="1.45">
      <text x="346" xml:space="preserve" y="338.6016" clip-path="url(#clipPath2)" stroke="none">globals</text>
    </g>
    <g fill="teal" text-rendering="geometricPrecision" shape-rendering="geometricPrecision" transform="matrix(1,0,0,1,-94,-63)" stroke="teal">
      <path d="M221 116 L221 188 L452 188 L452 116 ZM222 138 L222 187 L451 187 L451 138 Z" fill-rule="evenodd" clip-path="url(#clipPath2)" stroke="none"/>
    </g>
    <g stroke-linecap="butt" transform="matrix(1,0,0,1,-94,-63)" fill="white" text-rendering="geometricPrecision" font-family="sans-serif" shape-rendering="geometricPrecision" stroke="white" stroke-miterlimit="1.45">
      <text x="223" xml:space="preserve" y="129.6016" clip-path="url(#clipPath2)" stroke="none">process</text>
    </g>
    <g fill="rgb(153,51,102)" text-rendering="geometricPrecision" shape-rendering="geometricPrecision" transform="matrix(1,0,0,1,-94,-63)" stroke="rgb(153,51,102)">
      <path d="M250 146 L250 170 L374 170 L374 146 ZM251 168 L251 169 L373 169 L373 168 Z" fill-rule="evenodd" clip-path="url(#clipPath2)" stroke="none"/>
    </g>
    <g stroke-linecap="butt" transform="matrix(1,0,0,1,-94,-63)" fill="white" text-rendering="geometricPrecision" font-family="sans-serif" shape-rendering="geometricPrecision" stroke="white" stroke-miterlimit="1.45">
      <text x="252" xml:space="preserve" y="159.6016" clip-path="url(#clipPath2)" stroke="none">ProcessManager</text>
    </g>
    <g text-rendering="geometricPrecision" stroke-miterlimit="1.45" shape-rendering="geometricPrecision" font-family="sans-serif" transform="matrix(1,0,0,1,-94,-63)" stroke-linecap="butt">
      <text x="114.9678" xml:space="preserve" y="127.5352" clip-path="url(#clipPath2)" stroke="none">quickstart()</text>
    </g>
    <g stroke-linecap="butt" transform="matrix(1,0,0,1,-94,-63)" text-rendering="geometricPrecision" font-family="sans-serif" shape-rendering="geometricPrecision" font-style="italic" stroke-miterlimit="1.45">
      <text x="129.4805" xml:space="preserve" y="400.5352" clip-path="url(#clipPath2)" stroke="none">Package dependencies</text>
      <text font-style="normal" x="267.0977" xml:space="preserve" y="400.5352" clip-path="url(#clipPath2)" stroke="none">Higher packages can see and use packages below</text>
      <path fill="none" d="M139 158 L243.0393 158" clip-path="url(#clipPath2)"/>
    </g>
    <g stroke-linecap="butt" transform="matrix(1,0,0,1,-94,-63)" fill="white" text-rendering="geometricPrecision" shape-rendering="geometricPrecision" stroke="white" stroke-miterlimit="1.45">
      <path d="M250.0393 158 L243.0393 163 L236.0393 158 L243.0393 153 Z" stroke="none" clip-path="url(#clipPath2)"/>
      <path fill="none" d="M250.0393 158 L243.0393 163 L236.0393 158 L243.0393 153 Z" clip-path="url(#clipPath2)" stroke="black"/>
      <text x="152.1953" y="149.5352" clip-path="url(#clipPath2)" fill="black" font-family="sans-serif" stroke="none" xml:space="preserve">run()</text>
    </g>
  </g>
</svg>
