<?xml version="1.0" encoding="UTF-8"?><svg xmlns="http://www.w3.org/2000/svg" xmlns:xlink="http://www.w3.org/1999/xlink" fill-opacity="1" color-rendering="auto" color-interpolation="auto" text-rendering="auto" stroke="black" stroke-linecap="square" width="468" stroke-miterlimit="10" shape-rendering="auto" stroke-opacity="1" fill="black" stroke-dasharray="none" font-weight="normal" stroke-width="1" height="353" font-family="'Dialog'" font-style="normal" stroke-linejoin="miter" font-size="12px" stroke-dashoffset="0" image-rendering="auto">
  <!--Generated by ySVG 2.6-->
  <defs id="genericDefs"/>
  <g>
    <defs id="defs1">
      <clipPath clipPathUnits="userSpaceOnUse" id="clipPath1">
        <path d="M0 0 L468 0 L468 353 L0 353 L0 0 Z"/>
      </clipPath>
      <clipPath clipPathUnits="userSpaceOnUse" id="clipPath2">
        <path d="M94 63 L562 63 L562 416 L94 416 L94 63 Z"/>
      </clipPath>
    </defs>
    <g fill="white" text-rendering="geometricPrecision" shape-rendering="geometricPrecision" transform="translate(-94,-63)" stroke="white">
      <rect x="94" width="468" height="353" y="63" clip-path="url(#clipPath2)" stroke="none"/>
    </g>
    <g fill="gray" text-rendering="geometricPrecision" shape-rendering="geometricPrecision" transform="matrix(1,0,0,1,-94,-63)" stroke="gray">
      <path d="M198 78 L198 366 L543 366 L543 78 ZM199 100 L199 365 L542 365 L542 100 Z" fill-rule="evenodd" clip-path="url(#clipPath2)" stroke="none"/>
    </g>
    <g stroke-linecap="butt" transform="matrix(1,0,0,1,-94,-63)" fill="white" text-rendering="geometricPrecision" font-family="sans-serif" shape-rendering="geometricPrecision" stroke="white" stroke-miterlimit="1.45">
      <text x="200" xml:space="preserve" y="91.6016" clip-path="url(#clipPath2)" stroke="none">bhenk\doc2rst</text>
    </g>
    <g fill="teal" text-rendering="geometricPrecision" shape-rendering="geometricPrecision" transform="matrix(1,0,0,1,-94,-63)" stroke="teal">
      <path d="M221 237.75 L221 267.75 L304 267.75 L304 237.75 ZM222 259.75 L222 266.75 L303 266.75 L303 259.75 Z" fill-rule="evenodd" clip-path="url(#clipPath2)" stroke="none"/>
    </g>
    <g stroke-linecap="butt" transform="matrix(1,0,0,1,-94,-63)" fill="white" text-rendering="geometricPrecision" font-family="sans-serif" shape-rendering="geometricPrecision" stroke="white" stroke-miterlimit="1.45">
      <text x="223" xml:space="preserve" y="251.3516" clip-path="url(#clipPath2)" stroke="none">work</text>
    </g>
    <g fill="teal" text-rendering="geometricPrecision" shape-rendering="geometricPrecision" transform="matrix(1,0,0,1,-94,-63)" stroke="teal">
      <path d="M221 200 L221 230 L304 230 L304 200 ZM222 222 L222 229 L303 229 L303 222 Z" fill-rule="evenodd" clip-path="url(#clipPath2)" stroke="none"/>
    </g>
    <g stroke-linecap="butt" transform="matrix(1,0,0,1,-94,-63)" fill="white" text-rendering="geometricPrecision" font-family="sans-serif" shape-rendering="geometricPrecision" stroke="white" stroke-miterlimit="1.45">
      <text x="223" xml:space="preserve" y="213.6016" clip-path="url(#clipPath2)" stroke="none">tag</text>
    </g>
    <g fill="teal" text-rendering="geometricPrecision" shape-rendering="geometricPrecision" transform="matrix(1,0,0,1,-94,-63)" stroke="teal">
      <path d="M320 275.5 L320 305.5 L403 305.5 L403 275.5 ZM321 297.5 L321 304.5 L402 304.5 L402 297.5 Z" fill-rule="evenodd" clip-path="url(#clipPath2)" stroke="none"/>
    </g>
    <g stroke-linecap="butt" transform="matrix(1,0,0,1,-94,-63)" fill="white" text-rendering="geometricPrecision" font-family="sans-serif" shape-rendering="geometricPrecision" stroke="white" stroke-miterlimit="1.45">
      <text x="322" xml:space="preserve" y="289.1016" clip-path="url(#clipPath2)" stroke="none">rst</text>
    </g>
    <g fill="teal" text-rendering="geometricPrecision" shape-rendering="geometricPrecision" transform="matrix(1,0,0,1,-94,-63)" stroke="teal">
      <path d="M221 317 L221 347 L304 347 L304 317 ZM222 339 L222 346 L303 346 L303 339 Z" fill-rule="evenodd" clip-path="url(#clipPath2)" stroke="none"/>
    </g>
    <g stroke-linecap="butt" transform="matrix(1,0,0,1,-94,-63)" fill="white" text-rendering="geometricPrecision" font-family="sans-serif" shape-rendering="geometricPrecision" stroke="white" stroke-miterlimit="1.45">
      <text x="223" xml:space="preserve" y="330.6016" clip-path="url(#clipPath2)" stroke="none">format</text>
    </g>
    <g fill="teal" text-rendering="geometricPrecision" shape-rendering="geometricPrecision" transform="matrix(1,0,0,1,-94,-63)" stroke="teal">
      <path d="M419 317 L419 347 L502 347 L502 317 ZM420 339 L420 346 L501 346 L501 339 Z" fill-rule="evenodd" clip-path="url(#clipPath2)" stroke="none"/>
    </g>
    <g stroke-linecap="butt" transform="matrix(1,0,0,1,-94,-63)" fill="white" text-rendering="geometricPrecision" font-family="sans-serif" shape-rendering="geometricPrecision" stroke="white" stroke-miterlimit="1.45">
      <text x="421" xml:space="preserve" y="330.6016" clip-path="url(#clipPath2)" stroke="none">d2r</text>
    </g>
    <g fill="teal" text-rendering="geometricPrecision" shape-rendering="geometricPrecision" transform="matrix(1,0,0,1,-94,-63)" stroke="teal">
      <path d="M221 275.5 L221 305.5 L304 305.5 L304 275.5 ZM222 297.5 L222 304.5 L303 304.5 L303 297.5 Z" fill-rule="evenodd" clip-path="url(#clipPath2)" stroke="none"/>
    </g>
    <g stroke-linecap="butt" transform="matrix(1,0,0,1,-94,-63)" fill="white" text-rendering="geometricPrecision" font-family="sans-serif" shape-rendering="geometricPrecision" stroke="white" stroke-miterlimit="1.45">
      <text x="223" xml:space="preserve" y="289.1016" clip-path="url(#clipPath2)" stroke="none">log</text>
    </g>
    <g fill="teal" text-rendering="geometricPrecision" shape-rendering="geometricPrecision" transform="matrix(1,0,0,1,-94,-63)" stroke="teal">
      <path d="M320 317 L320 347 L403 347 L403 317 ZM321 339 L321 346 L402 346 L402 339 Z" fill-rule="evenodd" clip-path="url(#clipPath2)" stroke="none"/>
    </g>
    <g stroke-linecap="butt" transform="matrix(1,0,0,1,-94,-63)" fill="white" text-rendering="geometricPrecision" font-family="sans-serif" shape-rendering="geometricPrecision" stroke="white" stroke-miterlimit="1.45">
      <text x="322" xml:space="preserve" y="330.6016" clip-path="url(#clipPath2)" stroke="none">globals</text>
    </g>
    <g fill="teal" text-rendering="geometricPrecision" shape-rendering="geometricPrecision" transform="matrix(1,0,0,1,-94,-63)" stroke="teal">
      <path d="M221 116 L221 188 L452 188 L452 116 ZM222 138 L222 187 L451 187 L451 138 Z" fill-rule="evenodd" clip-path="url(#clipPath2)" stroke="none"/>
    </g>
    <g stroke-linecap="butt" transform="matrix(1,0,0,1,-94,-63)" fill="white" text-rendering="geometricPrecision" font-family="sans-serif" shape-rendering="geometricPrecision" stroke="white" stroke-miterlimit="1.45">
      <text x="223" xml:space="preserve" y="129.6016" clip-path="url(#clipPath2)" stroke="none">process</text>
    </g>
    <g fill="rgb(153,51,102)" text-rendering="geometricPrecision" shape-rendering="geometricPrecision" transform="matrix(1,0,0,1,-94,-63)" stroke="rgb(153,51,102)">
      <path d="M250 146 L250 170 L374 170 L374 146 ZM251 168 L251 169 L373 169 L373 168 Z" fill-rule="evenodd" clip-path="url(#clipPath2)" stroke="none"/>
    </g>
    <g stroke-linecap="butt" transform="matrix(1,0,0,1,-94,-63)" fill="white" text-rendering="geometricPrecision" font-family="sans-serif" shape-rendering="geometricPrecision" stroke="white" stroke-miterlimit="1.45">
      <text x="252" xml:space="preserve" y="159.6016" clip-path="url(#clipPath2)" stroke="none">ProcessManager</text>
    </g>
    <g text-rendering="geometricPrecision" stroke-miterlimit="1.45" shape-rendering="geometricPrecision" font-family="sans-serif" transform="matrix(1,0,0,1,-94,-63)" stroke-linecap="butt">
      <text x="114.9678" xml:space="preserve" y="127.5352" clip-path="url(#clipPath2)" stroke="none">quickstart()</text>
    </g>
    <g stroke-linecap="butt" transform="matrix(1,0,0,1,-94,-63)" text-rendering="geometricPrecision" font-family="sans-serif" shape-rendering="geometricPrecision" font-style="italic" stroke-miterlimit="1.45">
      <text x="117.4805" xml:space="preserve" y="390.5352" clip-path="url(#clipPath2)" stroke="none">Package dependencies</text>
      <text font-style="normal" x="255.0977" xml:space="preserve" y="390.5352" clip-path="url(#clipPath2)" stroke="none">Higher packages can see and use packages below</text>
      <path fill="none" d="M139 158 L243.0393 158" clip-path="url(#clipPath2)"/>
    </g>
    <g stroke-linecap="butt" transform="matrix(1,0,0,1,-94,-63)" fill="white" text-rendering="geometricPrecision" shape-rendering="geometricPrecision" stroke="white" stroke-miterlimit="1.45">
      <path d="M250.0393 158 L243.0393 163 L236.0393 158 L243.0393 153 Z" stroke="none" clip-path="url(#clipPath2)"/>
      <path fill="none" d="M250.0393 158 L243.0393 163 L236.0393 158 L243.0393 153 Z" clip-path="url(#clipPath2)" stroke="black"/>
      <text x="152.1953" y="149.5352" clip-path="url(#clipPath2)" fill="black" font-family="sans-serif" stroke="none" xml:space="preserve">run()</text>
    </g>
  </g>
</svg>
